{
  "accessors": [
    {
      "bufferView": 2,
      "componentType": 5126,
      "count": 27900,
      "max": [
        1.267792820930481,
        -6.266730308532715,
        3.4265716075897217
      ],
      "min": [
        0.6210345029830933,
        -7.086601257324219,
        1.2295445203781128
      ],
      "type": "VEC3"
    },
    {
      "bufferView": 2,
      "byteOffset": 334800,
      "componentType": 5126,
      "count": 27900,
      "max": [
        0.9998554587364197,
        0.9999334216117859,
        0.999718189239502
      ],
      "min": [
        -0.9999592304229736,
        -0.9996636509895325,
        -0.999899685382843
      ],
      "type": "VEC3"
    },
    {
      "bufferView": 3,
      "componentType": 5126,
      "count": 27900,
      "max": [
        0.9995203614234924,
        0.9999251365661621,
        0.99989253282547,
        -1.0
      ],
      "min": [
        -0.9999412298202515,
        -0.9999082088470459,
        -0.9999827146530151,
        -1.0
      ],
      "type": "VEC4"
    },
    {
      "bufferView": 3,
      "byteOffset": 446400,
      "componentType": 5126,
      "count": 27900,
      "max": [
        1.0,
        1.0,
        1.0,
        1.0
      ],
      "min": [
        0.843137264251709,
        0.7803921699523926,
        0.6392157077789307,
        1.0
      ],
      "type": "VEC4"
    },
    {
      "bufferView": 1,
      "componentType": 5126,
      "count": 27900,
      "max": [
        0.9980400204658508,
        0.9980400204658508
      ],
      "min": [
        0.033160001039505005,
        0.0019499999471008778
      ],
      "type": "VEC2"
    },
    {
      "bufferView": 0,
      "componentType": 5125,
      "count": 165168,
      "type": "SCALAR"
    }
  ],
  "asset": {
    "extras": {
      "author": "University of Dundee, School of Dentistry (https://sketchfab.com/DundeeDental)",
      "license": "CC-BY-4.0 (http://creativecommons.org/licenses/by/4.0/)",
      "source": "https://sketchfab.com/3d-models/mandibular-left-canine-1082011ab5aa46bb96b2af6a02a4ec0c",
      "title": "Mandibular Left Canine"
    },
    "generator": "Sketchfab-15.11.0",
    "version": "2.0"
  },
  "bufferViews": [
    {
      "buffer": 0,
      "byteLength": 660672,
      "name": "floatBufferViews",
      "target": 34963
    },
    {
      "buffer": 0,
      "byteLength": 223200,
      "byteOffset": 660672,
      "byteStride": 8,
      "name": "floatBufferViews",
      "target": 34962
    },
    {
      "buffer": 0,
      "byteLength": 669600,
      "byteOffset": 883872,
      "byteStride": 12,
      "name": "floatBufferViews",
      "target": 34962
    },
    {
      "buffer": 0,
      "byteLength": 892800,
      "byteOffset": 1553472,
      "byteStride": 16,
      "name": "floatBufferViews",
      "target": 34962
    }
  ],
  "buffers": [
    {
      "byteLength": 2446272,
      "uri": "scene.bin"
    }
  ],
  "extensionsUsed": [
    "KHR_materials_specular"
  ],
  "images": [
    {
      "uri": "textures/defaultMat_baseColor.png"
    },
    {
      "uri": "textures/defaultMat_normal.png"
    }
  ],
  "materials": [
    {
      "doubleSided": true,
      "extensions": {
        "KHR_materials_specular": {
          "specularColorFactor": [
            1.0,
            1.0,
            1.0
          ],
          "specularFactor": 0.01
        }
      },
      "name": "defaultMat",
      "normalTexture": {
        "index": 1
      },
      "pbrMetallicRoughness": {
        "baseColorTexture": {
          "index": 0
        },
        "metallicFactor": 0.0,
        "roughnessFactor": 0.2
      }
    }
  ],
  "meshes": [
    {
      "name": "Object_0",
      "primitives": [
        {
          "attributes": {
            "COLOR_0": 3,
            "NORMAL": 1,
            "POSITION": 0,
            "TANGENT": 2,
            "TEXCOORD_0": 4
          },
          "indices": 5,
          "material": 0,
          "mode": 4
        }
      ]
    }
  ],
  "nodes": [
    {
      "children": [
        1
      ],
      "matrix": [
        0.41088247299194336,
        0.0,
        0.0,
        0.0,
        0.0,
        9.123423638611591e-17,
        -0.41088247299194336,
        0.0,
        0.0,
        0.41088247299194336,
        9.123423638611591e-17,
        0.0,
        0.0,
        0.0,
        0.0,
        1.0
      ],
      "name": "Sketchfab_model"
    },
    {
      "children": [
        2
      ],
      "name": "LL3sketch_1.OBJ.cleaner"
    },
    {
      "mesh": 0,
      "name": "Object_2"
    }
  ],
  "samplers": [
    {
      "magFilter": 9728,
      "minFilter": 9728,
      "wrapS": 10497,
      "wrapT": 10497
    },
    {
      "magFilter": 9729,
      "minFilter": 9987,
      "wrapS": 10497,
      "wrapT": 10497
    }
  ],
  "scene": 0,
  "scenes": [
    {
      "name": "Sketchfab_Scene",
      "nodes": [
        0
      ]
    }
  ],
  "textures": [
    {
      "sampler": 0,
      "source": 0
    },
    {
      "sampler": 1,
      "source": 1
    }
  ]
}
