{
  "accessors": [
    {
      "bufferView": 2,
      "componentType": 5126,
      "count": 24329,
      "max": [
        0.21693383157253265,
        -6.811545372009277,
        3.4840247631073
      ],
      "min": [
        -0.3300863206386566,
        -7.708421230316162,
        1.4741137027740479
      ],
      "type": "VEC3"
    },
    {
      "bufferView": 2,
      "byteOffset": 291948,
      "componentType": 5126,
      "count": 24329,
      "max": [
        0.9999949932098389,
        0.9999540448188782,
        0.999535083770752
      ],
      "min": [
        -0.9998821020126343,
        -0.9999204874038696,
        -0.9986927509307861
      ],
      "type": "VEC3"
    },
    {
      "bufferView": 3,
      "componentType": 5126,
      "count": 24329,
      "max": [
        0.8784313797950745,
        0.8705882430076599,
        0.8588235378265381,
        1.0
      ],
      "min": [
        0.7490196228027344,
        0.7333333492279053,
        0.6392157077789307,
        1.0
      ],
      "type": "VEC4"
    },
    {
      "bufferView": 1,
      "componentType": 5126,
      "count": 24329,
      "max": [
        0.9980400204658508,
        0.8197199702262878
      ],
      "min": [
        0.0019499999471008778,
        0.0019499999471008778
      ],
      "type": "VEC2"
    },
    {
      "bufferView": 0,
      "componentType": 5125,
      "count": 144600,
      "type": "SCALAR"
    }
  ],
  "asset": {
    "extras": {
      "author": "University of Dundee, School of Dentistry (https://sketchfab.com/DundeeDental)",
      "license": "CC-BY-4.0 (http://creativecommons.org/licenses/by/4.0/)",
      "source": "https://sketchfab.com/3d-models/mandibular-left-lateral-incisor-00fa4f74e10b4769830bf60469c65e27",
      "title": "Mandibular Left Lateral Incisor"
    },
    "generator": "Sketchfab-15.11.0",
    "version": "2.0"
  },
  "bufferViews": [
    {
      "buffer": 0,
      "byteLength": 578400,
      "name": "floatBufferViews",
      "target": 34963
    },
    {
      "buffer": 0,
      "byteLength": 194632,
      "byteOffset": 578400,
      "byteStride": 8,
      "name": "floatBufferViews",
      "target": 34962
    },
    {
      "buffer": 0,
      "byteLength": 583896,
      "byteOffset": 773032,
      "byteStride": 12,
      "name": "floatBufferViews",
      "target": 34962
    },
    {
      "buffer": 0,
      "byteLength": 389264,
      "byteOffset": 1356928,
      "byteStride": 16,
      "name": "floatBufferViews",
      "target": 34962
    }
  ],
  "buffers": [
    {
      "byteLength": 1746192,
      "uri": "scene.bin"
    }
  ],
  "images": [
    {
      "uri": "textures/defaultMat_baseColor.png"
    }
  ],
  "materials": [
    {
      "doubleSided": true,
      "name": "defaultMat",
      "pbrMetallicRoughness": {
        "baseColorTexture": {
          "index": 0
        },
        "metallicFactor": 0.0,
        "roughnessFactor": 0.6
      }
    }
  ],
  "meshes": [
    {
      "name": "Object_0",
      "primitives": [
        {
          "attributes": {
            "COLOR_0": 2,
            "NORMAL": 1,
            "POSITION": 0,
            "TEXCOORD_0": 3
          },
          "indices": 4,
          "material": 0,
          "mode": 4
        }
      ]
    }
  ],
  "nodes": [
    {
      "children": [
        1
      ],
      "matrix": [
        0.440716952085495,
        0.0,
        0.0,
        0.0,
        0.0,
        9.785882150958769e-17,
        -0.440716952085495,
        0.0,
        0.0,
        0.440716952085495,
        9.785882150958769e-17,
        0.0,
        0.0,
        0.0,
        0.0,
        1.0
      ],
      "name": "Sketchfab_model"
    },
    {
      "children": [
        2
      ],
      "name": "LL1sketch_1.OBJ.cleaner"
    },
    {
      "mesh": 0,
      "name": "Object_2"
    }
  ],
  "samplers": [
    {
      "magFilter": 9728,
      "minFilter": 9728,
      "wrapS": 10497,
      "wrapT": 10497
    }
  ],
  "scene": 0,
  "scenes": [
    {
      "name": "Sketchfab_Scene",
      "nodes": [
        0
      ]
    }
  ],
  "textures": [
    {
      "sampler": 0,
      "source": 0
    }
  ]
}
