{
  "accessors": [
    {
      "bufferView": 2,
      "componentType": 5126,
      "count": 25423,
      "max": [
        1.0501145124435425,
        -7.410770416259766,
        4.884586334228516
      ],
      "min": [
        0.454209566116333,
        -8.082073211669922,
        3.1870241165161133
      ],
      "type": "VEC3"
    },
    {
      "bufferView": 2,
      "byteOffset": 305076,
      "componentType": 5126,
      "count": 25423,
      "max": [
        0.9998538494110107,
        0.9998312592506409,
        0.99965900182724
      ],
      "min": [
        -0.9999971389770508,
        -0.9999826550483704,
        -0.9990237355232239
      ],
      "type": "VEC3"
    },
    {
      "bufferView": 3,
      "componentType": 5126,
      "count": 25423,
      "max": [
        0.8341714143753052,
        0.8747650384902954,
        0.9995994567871094,
        -1.0
      ],
      "min": [
        -0.8172378540039063,
        -0.9061943888664246,
        -0.9999887347221375,
        -1.0
      ],
      "type": "VEC4"
    },
    {
      "bufferView": 3,
      "byteOffset": 406768,
      "componentType": 5126,
      "count": 25423,
      "max": [
        0.9960784316062927,
        0.9960784316062927,
        0.9960784316062927,
        1.0
      ],
      "min": [
        0.8156862854957581,
        0.7490196228027344,
        0.6039215922355652,
        1.0
      ],
      "type": "VEC4"
    },
    {
      "bufferView": 1,
      "componentType": 5126,
      "count": 25423,
      "max": [
        0.9980400204658508,
        0.8817200064659119
      ],
      "min": [
        0.0019499999471008778,
        0.0019499999471008778
      ],
      "type": "VEC2"
    },
    {
      "bufferView": 0,
      "componentType": 5125,
      "count": 150648,
      "type": "SCALAR"
    }
  ],
  "asset": {
    "extras": {
      "author": "University of Dundee, School of Dentistry (https://sketchfab.com/DundeeDental)",
      "license": "CC-BY-4.0 (http://creativecommons.org/licenses/by/4.0/)",
      "source": "https://sketchfab.com/3d-models/maxillary-lateral-incisor-5e89ddbfc6454e2e8e09c645574b8932",
      "title": "Maxillary Lateral Incisor"
    },
    "generator": "Sketchfab-15.11.0",
    "version": "2.0"
  },
  "bufferViews": [
    {
      "buffer": 0,
      "byteLength": 602592,
      "name": "floatBufferViews",
      "target": 34963
    },
    {
      "buffer": 0,
      "byteLength": 203384,
      "byteOffset": 602592,
      "byteStride": 8,
      "name": "floatBufferViews",
      "target": 34962
    },
    {
      "buffer": 0,
      "byteLength": 610152,
      "byteOffset": 805976,
      "byteStride": 12,
      "name": "floatBufferViews",
      "target": 34962
    },
    {
      "buffer": 0,
      "byteLength": 813536,
      "byteOffset": 1416128,
      "byteStride": 16,
      "name": "floatBufferViews",
      "target": 34962
    }
  ],
  "buffers": [
    {
      "byteLength": 2229664,
      "uri": "scene.bin"
    }
  ],
  "extensionsUsed": [
    "KHR_materials_specular"
  ],
  "images": [
    {
      "uri": "textures/defaultMat_baseColor.png"
    },
    {
      "uri": "textures/defaultMat_normal.png"
    }
  ],
  "materials": [
    {
      "doubleSided": true,
      "extensions": {
        "KHR_materials_specular": {
          "specularColorFactor": [
            1.0,
            1.0,
            1.0
          ],
          "specularFactor": 0.02
        }
      },
      "name": "defaultMat",
      "normalTexture": {
        "index": 1
      },
      "pbrMetallicRoughness": {
        "baseColorTexture": {
          "index": 0
        },
        "metallicFactor": 0.0,
        "roughnessFactor": 0.2
      }
    }
  ],
  "meshes": [
    {
      "name": "Object_0",
      "primitives": [
        {
          "attributes": {
            "COLOR_0": 3,
            "NORMAL": 1,
            "POSITION": 0,
            "TANGENT": 2,
            "TEXCOORD_0": 4
          },
          "indices": 5,
          "material": 0,
          "mode": 4
        }
      ]
    }
  ],
  "nodes": [
    {
      "children": [
        1
      ],
      "matrix": [
        0.5207577347755432,
        0.0,
        0.0,
        0.0,
        0.0,
        1.1563144547988973e-16,
        -0.5207577347755432,
        0.0,
        0.0,
        0.5207577347755432,
        1.1563144547988973e-16,
        0.0,
        0.0,
        0.0,
        0.0,
        1.0
      ],
      "name": "Sketchfab_model"
    },
    {
      "children": [
        2
      ],
      "name": "UL2sketch_1.OBJ.cleaner"
    },
    {
      "mesh": 0,
      "name": "Object_2"
    }
  ],
  "samplers": [
    {
      "magFilter": 9728,
      "minFilter": 9728,
      "wrapS": 10497,
      "wrapT": 10497
    },
    {
      "magFilter": 9729,
      "minFilter": 9987,
      "wrapS": 10497,
      "wrapT": 10497
    }
  ],
  "scene": 0,
  "scenes": [
    {
      "name": "Sketchfab_Scene",
      "nodes": [
        0
      ]
    }
  ],
  "textures": [
    {
      "sampler": 0,
      "source": 0
    },
    {
      "sampler": 1,
      "source": 1
    }
  ]
}
