{
  "accessors": [
    {
      "bufferView": 2,
      "componentType": 5126,
      "count": 25757,
      "max": [
        3.0185718536376953,
        -2.1487739086151123,
        3.709238290786743
      ],
      "min": [
        2.0646564960479736,
        -3.1223955154418945,
        2.248997688293457
      ],
      "type": "VEC3"
    },
    {
      "bufferView": 2,
      "byteOffset": 309084,
      "componentType": 5126,
      "count": 25757,
      "max": [
        0.9996899962425232,
        0.9999984502792358,
        0.9998641610145569
      ],
      "min": [
        -0.9999960064888,
        -0.9998844265937805,
        -0.9999032020568848
      ],
      "type": "VEC3"
    },
    {
      "bufferView": 3,
      "componentType": 5126,
      "count": 25757,
      "max": [
        0.9980679154396057,
        0.9999871253967285,
        0.9998779892921448,
        -1.0
      ],
      "min": [
        -0.9999046921730042,
        -0.9739092588424683,
        -0.9997982978820801,
        -1.0
      ],
      "type": "VEC4"
    },
    {
      "bufferView": 3,
      "byteOffset": 412112,
      "componentType": 5126,
      "count": 25757,
      "max": [
        1.0,
        1.0,
        1.0,
        1.0
      ],
      "min": [
        0.7137255072593689,
        0.6980392336845398,
        0.5803921818733215,
        1.0
      ],
      "type": "VEC4"
    },
    {
      "bufferView": 1,
      "componentType": 5126,
      "count": 25757,
      "max": [
        0.9980400204658508,
        0.9692999720573425
      ],
      "min": [
        0.0019499999471008778,
        0.0019499999471008778
      ],
      "type": "VEC2"
    },
    {
      "bufferView": 0,
      "componentType": 5125,
      "count": 153648,
      "type": "SCALAR"
    }
  ],
  "asset": {
    "extras": {
      "author": "University of Dundee, School of Dentistry (https://sketchfab.com/DundeeDental)",
      "license": "CC-BY-4.0 (http://creativecommons.org/licenses/by/4.0/)",
      "source": "https://sketchfab.com/3d-models/mandibular-third-molar-561bb06b3b084b84978163906de1c2b5",
      "title": "Mandibular Third Molar"
    },
    "generator": "Sketchfab-15.11.0",
    "version": "2.0"
  },
  "bufferViews": [
    {
      "buffer": 0,
      "byteLength": 614592,
      "name": "floatBufferViews",
      "target": 34963
    },
    {
      "buffer": 0,
      "byteLength": 206056,
      "byteOffset": 614592,
      "byteStride": 8,
      "name": "floatBufferViews",
      "target": 34962
    },
    {
      "buffer": 0,
      "byteLength": 618168,
      "byteOffset": 820648,
      "byteStride": 12,
      "name": "floatBufferViews",
      "target": 34962
    },
    {
      "buffer": 0,
      "byteLength": 824224,
      "byteOffset": 1438816,
      "byteStride": 16,
      "name": "floatBufferViews",
      "target": 34962
    }
  ],
  "buffers": [
    {
      "byteLength": 2263040,
      "uri": "scene.bin"
    }
  ],
  "extensionsUsed": [
    "KHR_materials_specular"
  ],
  "images": [
    {
      "uri": "textures/defaultMat_baseColor.png"
    },
    {
      "uri": "textures/defaultMat_normal.png"
    }
  ],
  "materials": [
    {
      "doubleSided": true,
      "extensions": {
        "KHR_materials_specular": {
          "specularColorFactor": [
            1.0,
            1.0,
            1.0
          ],
          "specularFactor": 0.02
        }
      },
      "name": "defaultMat",
      "normalTexture": {
        "index": 1
      },
      "pbrMetallicRoughness": {
        "baseColorTexture": {
          "index": 0
        },
        "metallicFactor": 0.0,
        "roughnessFactor": 0.2
      }
    }
  ],
  "meshes": [
    {
      "name": "Object_0",
      "primitives": [
        {
          "attributes": {
            "COLOR_0": 3,
            "NORMAL": 1,
            "POSITION": 0,
            "TANGENT": 2,
            "TEXCOORD_0": 4
          },
          "indices": 5,
          "material": 0,
          "mode": 4
        }
      ]
    }
  ],
  "nodes": [
    {
      "children": [
        1
      ],
      "matrix": [
        0.9802463054656982,
        -4.7385564168247324e-17,
        0.19778060913085938,
        0.0,
        0.1932370811700821,
        -0.21311356127262093,
        -0.9577275514602661,
        0.0,
        0.042149730026721954,
        0.977027416229248,
        -0.20890377461910226,
        0.0,
        0.0,
        0.0,
        0.0,
        1.0
      ],
      "name": "Sketchfab_model"
    },
    {
      "children": [
        2
      ],
      "name": "LL8sketc_1.OBJ.cleaner"
    },
    {
      "mesh": 0,
      "name": "Object_2"
    }
  ],
  "samplers": [
    {
      "magFilter": 9728,
      "minFilter": 9728,
      "wrapS": 10497,
      "wrapT": 10497
    },
    {
      "magFilter": 9729,
      "minFilter": 9987,
      "wrapS": 10497,
      "wrapT": 10497
    }
  ],
  "scene": 0,
  "scenes": [
    {
      "name": "Sketchfab_Scene",
      "nodes": [
        0
      ]
    }
  ],
  "textures": [
    {
      "sampler": 0,
      "source": 0
    },
    {
      "sampler": 1,
      "source": 1
    }
  ]
}
